<svg width="32" height="32" viewBox="0 0 32 32" fill="none" xmlns="http://www.w3.org/2000/svg">
<rect width="32" height="32" fill="none"/>
<path d="M16 6C12 6 8 10 8 14C8 18 12 22 16 22C20 22 24 18 24 14C24 10 20 6 16 6Z" fill="#E57373"/>
<path d="M16 6C14 6 12 8 12 10H20C20 8 18 6 16 6Z" fill="#FFCDD2"/>
<path d="M16 22C14 22 12 20 12 18H20C20 20 18 22 16 22Z" fill="#FFCDD2"/>
<path d="M15 4H17V8H15V4Z" fill="#A1887F"/>
<path d="M16 26L16 28" stroke="#A1887F" stroke-width="2" stroke-linecap="round"/>
</svg>