 <svg width="120" height="140" viewBox="0 0 120 140" xmlns="http://www.w3.org/2000/svg">
                <defs>
                    <linearGradient id="rainbow2" x1="0%" y1="0%" x2="100%" y2="0%">
                        <stop offset="0%" style="stop-color:#4D96FF;stop-opacity:1" />
                        <stop offset="16%" style="stop-color:#9B59B6;stop-opacity:1" />
                        <stop offset="33%" style="stop-color:#FF6B6B;stop-opacity:1" />
                        <stop offset="50%" style="stop-color:#FF8E53;stop-opacity:1" />
                        <stop offset="66%" style="stop-color:#FFD93D;stop-opacity:1" />
                        <stop offset="83%" style="stop-color:#6BCF7F;stop-opacity:1" />
                        <stop offset="100%" style="stop-color:#4D96FF;stop-opacity:1" />
                    </linearGradient>
                </defs>
                
                <!-- Arms -->
                <ellipse cx="25" cy="45" rx="8" ry="20" fill="#66BB6A" stroke="#4CAF50" stroke-width="2"/>
                <ellipse cx="95" cy="45" rx="8" ry="20" fill="#66BB6A" stroke="#4CAF50" stroke-width="2"/>
                
                <!-- Legs -->
                <ellipse cx="45" cy="90" rx="10" ry="25" fill="#66BB6A" stroke="#4CAF50" stroke-width="2"/>
                <ellipse cx="75" cy="90" rx="10" ry="25" fill="#66BB6A" stroke="#4CAF50" stroke-width="2"/>
                
                <!-- Feet -->
                <ellipse cx="45" cy="115" rx="12" ry="8" fill="#4CAF50" stroke="#388E3C" stroke-width="2"/>
                <ellipse cx="75" cy="115" rx="12" ry="8" fill="#4CAF50" stroke="#388E3C" stroke-width="2"/>
                
                <!-- Main body circle -->
                <circle cx="60" cy="50" r="35" fill="#66BB6A" stroke="#4CAF50" stroke-width="2"/>
                
                <!-- Spiky fur around the body -->
                <path d="M30 25 L35 18 L40 25 L45 20 L50 25 L55 18 L60 25 L65 20 L70 25 L75 18 L80 25 L85 20 L90 25" 
                      fill="#81C784" stroke="#4CAF50" stroke-width="1"/>
                <path d="M25 35 L30 28 L35 35 L40 30 L45 35 L50 28 L55 35 L60 30 L65 35 L70 28 L75 35 L80 30 L85 35 L90 28 L95 35" 
                      fill="#81C784" stroke="#4CAF50" stroke-width="1"/>
                <path d="M25 50 L30 42 L35 50 L40 45 L45 50 L50 42 L55 50 L60 45 L65 50 L70 42 L75 50 L80 45 L85 50 L90 42 L95 50" 
                      fill="#81C784" stroke="#4CAF50" stroke-width="1"/>
                <path d="M25 65 L30 58 L35 65 L40 60 L45 65 L50 58 L55 65 L60 60 L65 65 L70 58 L75 65 L80 60 L85 65 L90 58 L95 65" 
                      fill="#81C784" stroke="#4CAF50" stroke-width="1"/>
                <path d="M30 75 L35 68 L40 75 L45 70 L50 75 L55 68 L60 75 L65 70 L70 75 L75 68 L80 75 L85 70 L90 75" 
                      fill="#81C784" stroke="#4CAF50" stroke-width="1"/>
                
                <!-- Top spiky hair -->
                <path d="M40 18 L45 8 L50 18 L55 5 L60 18 L65 8 L70 18 L75 5 L80 18" 
                      fill="#81C784" stroke="#4CAF50" stroke-width="1.5"/>
                
                <!-- Angry eyebrows -->
                <path d="M35 30 L50 35 L52 32 L37 27 Z" fill="#388E3C" stroke="#2E7D32" stroke-width="1"/>
                <path d="M68 32 L70 35 L85 30 L83 27 Z" fill="#388E3C" stroke="#2E7D32" stroke-width="1"/>
                
                <!-- Large angry mouth opening -->
                <ellipse cx="60" cy="55" rx="15" ry="12" fill="#000000"/>
                
                <!-- Angry teeth -->
                <polygon points="50,50 52,60 54,50" fill="white"/>
                <polygon points="56,50 58,60 60,50" fill="white"/>
                <polygon points="62,50 64,60 66,50" fill="white"/>
                <polygon points="68,50 70,60 72,50" fill="white"/>
                
                <!-- Rainbow sunglasses (angled for angry look) -->
                <rect x="35" y="35" width="50" height="15" fill="url(#rainbow2)" rx="7" transform="rotate(-3 60 42)"/>
                <rect x="38" y="38" width="18" height="9" fill="url(#rainbow2)" rx="4" transform="rotate(-3 47 42)"/>
                <rect x="64" y="38" width="18" height="9" fill="url(#rainbow2)" rx="4" transform="rotate(-3 73 42)"/>
                
                <!-- Sunglasses frame (angled) -->
                <rect x="35" y="35" width="50" height="15" fill="none" stroke="#2196F3" stroke-width="2" rx="7" transform="rotate(-3 60 42)"/>
                <line x1="56" y1="42" x2="64" y2="42" stroke="#2196F3" stroke-width="2" transform="rotate(-3 60 42)"/>
                
                <!-- Angry glowing eyes behind sunglasses -->
                <circle cx="47" cy="42" r="3" fill="#FF1744" opacity="0.8"/>
                <circle cx="73" cy="42" r="3" fill="#FF1744" opacity="0.8"/>
                <circle cx="47" cy="41" r="1" fill="#FF5722"/>
                <circle cx="73" cy="41" r="1" fill="#FF5722"/>
                
                <!-- Player label -->
            </svg>